<?xml version="1.0" standalone="no"?>
<!DOCTYPE svg PUBLIC "-//W3C//DTD SVG 20010904//EN"
 "http://www.w3.org/TR/2001/REC-SVG-20010904/DTD/svg10.dtd">
<svg version="1.0" xmlns="http://www.w3.org/2000/svg"
 width="512.000000pt" height="512.000000pt" viewBox="0 0 512.000000 512.000000"
 preserveAspectRatio="xMidYMid meet">

<g transform="translate(0.000000,512.000000) scale(0.100000,-0.100000)"
fill="#000000" stroke="none">
<path d="M2020 5105 c-381 -48 -734 -196 -1033 -434 -54 -43 -85 -76 -98 -104
-50 -111 9 -235 126 -265 50 -13 253 -28 635 -47 162 -8 301 -15 309 -15 8 0
-19 -23 -59 -51 -228 -157 -451 -393 -643 -681 -179 -268 -329 -616 -398 -923
l-22 -101 -82 1 c-76 0 -88 -3 -156 -38 -233 -121 -451 -344 -571 -581 -35
-70 -34 -103 6 -189 95 -200 333 -336 521 -297 83 17 131 40 207 99 l68 51 6
-27 c30 -136 83 -316 117 -403 35 -87 47 -107 75 -124 57 -33 211 -86 352
-122 74 -19 135 -36 136 -37 1 -1 -18 -29 -43 -62 -53 -70 -76 -120 -93 -200
-39 -189 96 -425 298 -521 85 -40 118 -41 188 -6 219 111 414 294 548 514 61
100 79 156 74 222 l-4 52 130 32 c229 55 504 156 531 195 34 48 9 135 -45 157
-36 15 -34 15 -214 -55 -145 -57 -324 -106 -487 -135 -176 -32 -505 -39 -687
-16 -146 19 -355 69 -477 114 l-80 29 -23 59 c-64 164 -114 389 -133 604 -62
703 230 1468 769 2014 354 358 765 522 1262 503 162 -6 217 -13 387 -48 l103
-22 59 -121 c32 -66 86 -158 120 -203 119 -159 297 -300 477 -378 43 -19 81
-40 85 -48 5 -8 20 -75 33 -150 96 -517 21 -941 -233 -1319 -76 -112 -205
-264 -270 -316 -79 -63 -90 -135 -30 -186 59 -50 99 -34 220 91 98 100 159
172 217 256 l40 58 6 -63 c3 -35 8 -130 11 -213 9 -241 35 -597 46 -640 32
-119 157 -177 267 -124 78 38 236 257 343 475 131 267 209 597 209 885 0 339
-81 617 -258 884 -114 172 -183 227 -307 243 l-59 7 -16 75 c-31 137 -49 188
-76 209 -15 12 -33 21 -40 21 -17 0 -18 22 -4 70 8 28 25 44 88 85 162 105
322 298 403 485 65 149 106 356 97 483 -4 52 -9 64 -36 88 -31 28 -37 29 -126
29 -360 0 -727 -196 -925 -495 -49 -73 -57 -81 -99 -92 -47 -12 -61 -7 -62 23
0 30 -52 55 -181 88 l-134 33 -7 63 c-14 127 -69 197 -243 312 -324 215 -692
295 -1115 243z m402 -195 c199 -19 393 -85 565 -191 110 -69 182 -135 189
-174 l6 -30 -170 3 c-200 4 -355 -13 -529 -59 l-118 -31 -295 12 c-324 12
-780 36 -904 46 l-80 7 30 24 c72 59 245 168 338 213 308 148 645 210 968 180z
m2318 -219 c0 -55 -42 -215 -78 -292 -80 -177 -250 -356 -420 -443 -35 -18
-53 -50 -74 -129 l-13 -48 -71 49 c-39 28 -101 81 -138 118 -74 75 -151 183
-139 194 4 4 31 13 58 20 75 20 80 24 132 111 137 230 365 391 629 443 112 23
114 22 114 -23z m-120 -1570 c60 -64 143 -199 191 -311 166 -385 135 -906 -81
-1356 -45 -92 -154 -266 -213 -338 l-24 -30 -6 75 c-9 93 -33 554 -47 889
l-12 255 30 101 c56 186 75 334 76 566 1 203 1 208 21 202 11 -3 40 -27 65
-53z m-3840 -841 c17 -9 18 -23 13 -232 -6 -253 -6 -254 -99 -357 -125 -139
-262 -149 -399 -29 -25 22 -55 58 -66 80 l-20 40 53 86 c91 147 273 316 433
401 45 24 58 25 85 11z m1506 -1515 c21 -84 -232 -388 -419 -504 l-87 -53 -44
26 c-130 76 -192 236 -135 348 27 54 99 130 159 168 l47 30 114 -5 c63 -3 161
-2 219 3 58 5 113 10 122 11 11 0 20 -8 24 -24z"/>
<path d="M2805 4113 c-304 -39 -568 -158 -813 -366 -107 -90 -191 -182 -302
-329 -320 -423 -492 -920 -493 -1423 0 -176 17 -257 83 -383 103 -198 265
-331 485 -398 83 -25 103 -27 255 -27 489 2 999 180 1417 493 263 198 427 384
546 620 143 285 181 584 121 970 -11 75 -27 94 -121 146 -241 135 -407 301
-553 553 -48 83 -61 98 -92 108 -88 29 -416 51 -533 36z m25 -225 c0 -24 -41
-402 -44 -405 -1 -1 -70 -20 -153 -41 l-151 -40 -171 100 c-199 116 -194 100
-57 192 146 98 301 165 466 200 96 21 110 20 110 -6z m402 1 c10 -5 25 -24 34
-42 102 -199 363 -463 581 -587 57 -32 61 -37 67 -79 3 -24 6 -58 6 -76 l0
-31 -227 -48 c-126 -25 -233 -46 -238 -46 -6 0 -113 103 -239 229 l-230 230
23 208 c12 114 24 221 27 237 l6 29 86 -7 c47 -4 94 -12 104 -17z m-1047 -547
l170 -100 3 -171 c2 -135 0 -171 -10 -171 -25 0 -670 109 -675 114 -13 12 134
234 237 359 58 71 74 85 88 78 9 -5 94 -54 187 -109z m1078 -653 l-39 -144
-194 -3 -193 -2 -138 137 -139 137 0 151 c0 82 3 173 6 202 l7 51 136 35 136
34 228 -227 229 -227 -39 -144z m662 114 c-16 -151 -80 -347 -157 -478 -43
-74 -129 -194 -139 -195 -3 0 -54 73 -114 162 l-107 162 44 160 44 161 50 12
c51 13 363 81 378 82 4 1 5 -29 1 -66z m-2183 -9 c59 -9 112 -20 118 -24 8 -5
-3 -79 -35 -251 -25 -134 -50 -247 -54 -252 -8 -8 -351 -147 -363 -147 -5 0
-6 24 -2 53 22 193 71 396 131 554 36 94 36 95 67 89 17 -3 79 -13 138 -22z
m523 -89 l149 -24 142 -142 141 -141 28 -169 c15 -93 26 -171 24 -172 -2 -2
-116 -24 -254 -50 l-250 -47 -135 135 -134 134 17 88 c85 453 78 423 101 418
11 -3 88 -16 171 -30z m1096 -547 l122 -182 -34 -29 c-106 -92 -352 -261 -409
-282 -13 -4 -24 47 -68 317 -29 178 -56 331 -58 341 -5 16 7 17 160 17 l166 0
121 -182z m-1394 -210 l122 -123 -85 -215 c-47 -118 -87 -216 -89 -219 -10 -9
-140 30 -203 61 -94 46 -207 160 -255 255 -31 63 -65 179 -55 188 6 5 423 173
433 174 6 1 65 -54 132 -121z m843 -227 c12 -77 20 -146 17 -154 -7 -19 -285
-111 -412 -136 -113 -23 -266 -43 -273 -36 -5 5 126 345 139 359 4 5 120 30
256 57 136 26 248 48 249 48 1 1 11 -62 24 -138z"/>
<path d="M3430 1423 c-56 -20 -83 -89 -56 -141 20 -38 44 -52 91 -52 79 0 126
103 74 159 -32 34 -73 47 -109 34z"/>
</g>
</svg>
