<svg version="1.0" xmlns="http://www.w3.org/2000/svg" width="682.667" height="682.667" viewBox="0 0 512 512"><path d="M202 1.5c-38.1 4.8-73.4 19.6-103.3 43.4-5.4 4.3-8.5 7.6-9.8 10.4-5 11.1.9 23.5 12.6 26.5 5 1.3 25.3 2.8 63.5 4.7 16.2.8 30.1 1.5 30.9 1.5.8 0-1.9 2.3-5.9 5.1-22.8 15.7-45.1 39.3-64.3 68.1-17.9 26.8-32.9 61.6-39.8 92.3l-2.2 10.1-8.2-.1c-7.6 0-8.8.3-15.6 3.8-23.3 12.1-45.1 34.4-57.1 58.1-3.5 7-3.4 10.3.6 18.9 9.5 20 33.3 33.6 52.1 29.7 8.3-1.7 13.1-4 20.7-9.9L83 359l.6 2.7c3 13.6 8.3 31.6 11.7 40.3 3.5 8.7 4.7 10.7 7.5 12.4 5.7 3.3 21.1 8.6 35.2 12.2 7.4 1.9 13.5 3.6 13.6 3.7.1.1-1.8 2.9-4.3 6.2-5.3 7-7.6 12-9.3 20-3.9 18.9 9.6 42.5 29.8 52.1 8.5 4 11.8 4.1 18.8.6 21.9-11.1 41.4-29.4 54.8-51.4 6.1-10 7.9-15.6 7.4-22.2l-.4-5.2 13-3.2c22.9-5.5 50.4-15.6 53.1-19.5 3.4-4.8.9-13.5-4.5-15.7-3.6-1.5-3.4-1.5-21.4 5.5-14.5 5.7-32.4 10.6-48.7 13.5-17.6 3.2-50.5 3.9-68.7 1.6-14.6-1.9-35.5-6.9-47.7-11.4l-8-2.9-2.3-5.9c-6.4-16.4-11.4-38.9-13.3-60.4-6.2-70.3 23-146.8 76.9-201.4 35.4-35.8 76.5-52.2 126.2-50.3 16.2.6 21.7 1.3 38.7 4.8l10.3 2.2 5.9 12.1c3.2 6.6 8.6 15.8 12 20.3 11.9 15.9 29.7 30 47.7 37.8 4.3 1.9 8.1 4 8.5 4.8.5.8 2 7.5 3.3 15 9.6 51.7 2.1 94.1-23.3 131.9-7.6 11.2-20.5 26.4-27 31.6-7.9 6.3-9 13.5-3 18.6 5.9 5 9.9 3.4 22-9.1 9.8-10 15.9-17.2 21.7-25.6l4-5.8.6 6.3c.3 3.5.8 13 1.1 21.3.9 24.1 3.5 59.7 4.6 64 3.2 11.9 15.7 17.7 26.7 12.4 7.8-3.8 23.6-25.7 34.3-47.5 13.1-26.7 20.9-59.7 20.9-88.5 0-33.9-8.1-61.7-25.8-88.4-11.4-17.2-18.3-22.7-30.7-24.3l-5.9-.7-1.6-7.5c-3.1-13.7-4.9-18.8-7.6-20.9-1.5-1.2-3.3-2.1-4-2.1-1.7 0-1.8-2.2-.4-7 .8-2.8 2.5-4.4 8.8-8.5C461 117 477 97.7 485.1 79c6.5-14.9 10.6-35.6 9.7-48.3-.4-5.2-.9-6.4-3.6-8.8-3.1-2.8-3.7-2.9-12.6-2.9-36 0-72.7 19.6-92.5 49.5-4.9 7.3-5.7 8.1-9.9 9.2-4.7 1.2-6.1.7-6.2-2.3 0-3-5.2-5.5-18.1-8.8l-13.4-3.3-.7-6.3c-1.4-12.7-6.9-19.7-24.3-31.2C281.1 4.3 244.3-3.7 202 1.5zM242.2 21c19.9 1.9 39.3 8.5 56.5 19.1 11 6.9 18.2 13.5 18.9 17.4l.6 3-17-.3c-20-.4-35.5 1.3-52.9 5.9l-11.8 3.1L207 68c-32.4-1.2-78-3.6-90.4-4.6l-8-.7 3-2.4c7.2-5.9 24.5-16.8 33.8-21.3 30.8-14.8 64.5-21 96.8-18zM474 42.9c0 5.5-4.2 21.5-7.8 29.2-8 17.7-25 35.6-42 44.3-3.5 1.8-5.3 5-7.4 12.9l-1.3 4.8-7.1-4.9c-3.9-2.8-10.1-8.1-13.8-11.8-7.4-7.5-15.1-18.3-13.9-19.4.4-.4 3.1-1.3 5.8-2 7.5-2 8-2.4 13.2-11.1 13.7-23 36.5-39.1 62.9-44.3 11.2-2.3 11.4-2.2 11.4 2.3zm-12 157c6 6.4 14.3 19.9 19.1 31.1 16.6 38.5 13.5 90.6-8.1 135.6-4.5 9.2-15.4 26.6-21.3 33.8l-2.4 3-.6-7.5c-.9-9.3-3.3-55.4-4.7-88.9l-1.2-25.5 3-10.1c5.6-18.6 7.5-33.4 7.6-56.6.1-20.3.1-20.8 2.1-20.2 1.1.3 4 2.7 6.5 5.3zM78 284c1.7.9 1.8 2.3 1.3 23.2-.6 25.3-.6 25.4-9.9 35.7-12.5 13.9-26.2 14.9-39.9 2.9-2.5-2.2-5.5-5.8-6.6-8l-2-4 5.3-8.6c9.1-14.7 27.3-31.6 43.3-40.1 4.5-2.4 5.8-2.5 8.5-1.1zm150.6 151.5c2.1 8.4-23.2 38.8-41.9 50.4l-8.7 5.3-4.4-2.6c-13-7.6-19.2-23.6-13.5-34.8 2.7-5.4 9.9-13 15.9-16.8l4.7-3 11.4.5c6.3.3 16.1.2 21.9-.3 5.8-.5 11.3-1 12.2-1.1 1.1 0 2 .8 2.4 2.4z"/><path d="M280.5 100.7c-30.4 3.9-56.8 15.8-81.3 36.6-10.7 9-19.1 18.2-30.2 32.9-32 42.3-49.2 92-49.3 142.3 0 17.6 1.7 25.7 8.3 38.3 10.3 19.8 26.5 33.1 48.5 39.8 8.3 2.5 10.3 2.7 25.5 2.7 48.9-.2 99.9-18 141.7-49.3 26.3-19.8 42.7-38.4 54.6-62 14.3-28.5 18.1-58.4 12.1-97-1.1-7.5-2.7-9.4-12.1-14.6-24.1-13.5-40.7-30.1-55.3-55.3-4.8-8.3-6.1-9.8-9.2-10.8-8.8-2.9-41.6-5.1-53.3-3.6zm2.5 22.5c0 2.4-4.1 40.2-4.4 40.5-.1.1-7 2-15.3 4.1l-15.1 4-17.1-10c-19.9-11.6-19.4-10-5.7-19.2 14.6-9.8 30.1-16.5 46.6-20 9.6-2.1 11-2 11 .6zm40.2-.1c1 .5 2.5 2.4 3.4 4.2 10.2 19.9 36.3 46.3 58.1 58.7 5.7 3.2 6.1 3.7 6.7 7.9.3 2.4.6 5.8.6 7.6v3.1l-22.7 4.8c-12.6 2.5-23.3 4.6-23.8 4.6-.6 0-11.3-10.3-23.9-22.9l-23-23 2.3-20.8c1.2-11.4 2.4-22.1 2.7-23.7l.6-2.9 8.6.7c4.7.4 9.4 1.2 10.4 1.7zm-104.7 54.7l17 10 .3 17.1c.2 13.5 0 17.1-1 17.1-2.5 0-67-10.9-67.5-11.4-1.3-1.2 13.4-23.4 23.7-35.9 5.8-7.1 7.4-8.5 8.8-7.8.9.5 9.4 5.4 18.7 10.9zm107.8 65.3l-3.9 14.4-19.4.3-19.3.2-13.8-13.7-13.9-13.7v-15.1c0-8.2.3-17.3.6-20.2l.7-5.1 13.6-3.5 13.6-3.4 22.8 22.7 22.9 22.7-3.9 14.4zm66.2-11.4c-1.6 15.1-8 34.7-15.7 47.8-4.3 7.4-12.9 19.4-13.9 19.5-.3 0-5.4-7.3-11.4-16.2l-10.7-16.2 4.4-16 4.4-16.1 5-1.2c5.1-1.3 36.3-8.1 37.8-8.2.4-.1.5 2.9.1 6.6zm-218.3.9c5.9.9 11.2 2 11.8 2.4.8.5-.3 7.9-3.5 25.1-2.5 13.4-5 24.7-5.4 25.2-.8.8-35.1 14.7-36.3 14.7-.5 0-.6-2.4-.2-5.3 2.2-19.3 7.1-39.6 13.1-55.4 3.6-9.4 3.6-9.5 6.7-8.9 1.7.3 7.9 1.3 13.8 2.2zm52.3 8.9l14.9 2.4 14.2 14.2 14.1 14.1 2.8 16.9c1.5 9.3 2.6 17.1 2.4 17.2-.2.2-11.6 2.4-25.4 5l-25 4.7-13.5-13.5-13.4-13.4 1.7-8.8c8.5-45.3 7.8-42.3 10.1-41.8 1.1.3 8.8 1.6 17.1 3zm109.6 54.7l12.2 18.2-3.4 2.9c-10.6 9.2-35.2 26.1-40.9 28.2-1.3.4-2.4-4.7-6.8-31.7-2.9-17.8-5.6-33.1-5.8-34.1-.5-1.6.7-1.7 16-1.7H324l12.1 18.2zm-139.4 21l12.2 12.3-8.5 21.5c-4.7 11.8-8.7 21.6-8.9 21.9-1 .9-14-3-20.3-6.1-9.4-4.6-20.7-16-25.5-25.5-3.1-6.3-6.5-17.9-5.5-18.8.6-.5 42.3-17.3 43.3-17.4.6-.1 6.5 5.4 13.2 12.1zm84.3 22.7c1.2 7.7 2 14.6 1.7 15.4-.7 1.9-28.5 11.1-41.2 13.6-11.3 2.3-26.6 4.3-27.3 3.6-.5-.5 12.6-34.5 13.9-35.9.4-.5 12-3 25.6-5.7 13.6-2.6 24.8-4.8 24.9-4.8.1-.1 1.1 6.2 2.4 13.8zm62 29.8c-5.6 2-8.3 8.9-5.6 14.1 2 3.8 4.4 5.2 9.1 5.2 7.9 0 12.6-10.3 7.4-15.9-3.2-3.4-7.3-4.7-10.9-3.4z"/></svg>