<svg id="logo-26" width="138" height="36" fill="none" xmlns="http://www.w3.org/2000/svg"><path d="M11.308 32.655L8.055 27.02l4.774-8.244 3.033 5.254 17.905-.01-5.08 8.712-17.38-.078z" class="ccompli2" fill="#FFAD64"/><path d="M36.964 18.427l-3.252 5.634-9.527-.012 3.034-5.253-8.961-15.502 10.084.044 8.622 15.09z" class="ccompli1" fill="#ADD4D3"/><path d="M11.81 3.264h6.504l4.753 8.256h-6.066L8.057 27.03l-5.004-8.755 8.756-15.011z" class="ccustom" fill="#FB8351"/><path fill-rule="evenodd" clip-rule="evenodd" d="M19.107 1.96l-.02-.034h-8.046L1.508 18.268l6.543 11.45.009-.014 2.473 4.285 18.92.085 6.644-11.392h-.044l2.454-4.251-9.386-16.427-10.014-.044zm6.225 10.898h.05l-4.73-8.215 6.912.03 7.857 13.75-2.46 4.26-6.444.004 2.247-3.892-3.432-5.937zm-7.864-8.256l3.226 5.58h-4.466L8.582 23.44l-.521.9-3.463-6.059 7.98-13.68h4.89zm-3.1 14.164l3.406-5.908h4.467l3.432 5.938-2.247 3.893-6.792.003-2.267-3.926zm-4.764 8.26L10.9 24.78l1.927-3.329 2.262 3.92 6.79-.005-.01.02 9.547.01-3.496 5.996-15.838-.07-2.478-4.294z" class="cneutral" fill="#333237"/><path d="M87.246 11.719c.916 0 1.66-.745 1.66-1.68a1.65 1.65 0 00-1.66-1.661c-.935 0-1.68.725-1.68 1.66 0 .936.745 1.68 1.68 1.68zm-1.49 11.034h2.96v-9.545h-2.96v9.545zm4.682 4.582h2.902V21.8c.554.725 1.814 1.222 3.131 1.222 2.845 0 4.563-2.177 4.487-5.193-.077-3.074-1.852-4.926-4.506-4.926-1.355 0-2.635.592-3.169 1.47l-.153-1.164h-2.692v14.127zm2.96-9.354c0-1.432.954-2.387 2.329-2.387 1.393 0 2.272.974 2.272 2.387 0 1.412-.879 2.386-2.272 2.386-1.375 0-2.33-.955-2.33-2.386zm7.873 1.756c.076 1.928 1.604 3.265 4.009 3.265 2.31 0 3.914-1.222 3.914-3.189 0-1.412-.84-2.348-2.406-2.73l-1.699-.42c-.611-.152-.993-.305-.993-.802 0-.496.401-.82.993-.82.668 0 1.107.439 1.088 1.088h2.654c-.076-1.986-1.585-3.227-3.685-3.227-2.119 0-3.703 1.26-3.703 3.17 0 1.279.706 2.329 2.596 2.825l1.68.44c.496.133.706.362.706.686 0 .478-.439.783-1.183.783-.859 0-1.317-.4-1.317-1.069h-2.654zm12.423 3.265c1.164 0 2.329-.535 2.921-1.318l.191 1.07h2.768v-9.546h-2.94v4.964c0 1.431-.42 2.214-1.776 2.214-1.05 0-1.737-.477-1.737-2.253v-4.925h-2.94v5.994c0 2.272 1.26 3.8 3.513 3.8zm10.542-.249v-5.212c0-1.603.859-2.061 1.699-2.061.936 0 1.547.572 1.547 1.756v5.517h2.901v-5.212c0-1.622.84-2.08 1.68-2.08.936 0 1.566.572 1.566 1.775v5.517h2.863v-6.242c0-2.177-1.145-3.628-3.608-3.628-1.374 0-2.501.669-2.997 1.7-.573-1.031-1.565-1.7-3.15-1.7-1.05 0-2.024.478-2.596 1.241l-.115-.916h-2.749v9.545h2.959z" class="ccustom" fill="#FB8351"/><path d="M46.924 8.627h-3.13v14.128h8.667v-2.768h-5.537V8.627zm5.836 9.336c0 3.016 2.023 5.02 5.078 5.02 3.035 0 5.059-2.004 5.059-5.02 0-3.016-2.024-5.04-5.06-5.04-3.054 0-5.078 2.024-5.078 5.04zm2.959-.02c0-1.431.84-2.386 2.119-2.386 1.26 0 2.1.955 2.1 2.387 0 1.45-.84 2.405-2.1 2.405-1.28 0-2.12-.954-2.12-2.405zm7.651-.133c0 2.883 1.87 4.83 4.524 4.83 1.28 0 2.387-.458 2.94-1.203v1.318c0 1.317-.82 2.195-2.272 2.195-1.298 0-2.195-.61-2.252-1.699h-2.978c.267 2.616 2.29 4.372 5.059 4.372 3.264 0 5.326-2.12 5.326-5.48V13.21h-2.654l-.152.974c-.535-.783-1.661-1.298-2.96-1.298-2.672 0-4.581 2.004-4.581 4.925zm2.978-.076c0-1.375.916-2.291 2.08-2.291 1.356 0 2.349.897 2.349 2.29 0 1.395-.974 2.349-2.33 2.349-1.164 0-2.1-.954-2.1-2.348zm8.226.229c0 3.016 2.023 5.02 5.078 5.02 3.035 0 5.06-2.004 5.06-5.02 0-3.016-2.025-5.04-5.06-5.04-3.055 0-5.078 2.024-5.078 5.04zm2.959-.02c0-1.431.84-2.386 2.12-2.386 1.26 0 2.1.955 2.1 2.387 0 1.45-.84 2.405-2.1 2.405-1.28 0-2.12-.954-2.12-2.405z" class="cneutral" fill="#333237"/></svg>