<svg height="52" width="52" xmlns="http://www.w3.org/2000/svg"><path fill="#eadd97" d="M51.51 46.09l-22.26-44A4 4 0 0027.88.56a3.44 3.44 0 00-3.76 0 4 4 0 00-1.37 1.53l-22.26 44A4 4 0 00.55 50a3.82 3.82 0 001.35 1.47 3.45 3.45 0 001.84.53h44.52a3.45 3.45 0 001.84-.53A3.82 3.82 0 0051.45 50a4 4 0 00.06-3.91zM29.71 43a1 1 0 01-.27.73.88.88 0 01-.66.3h-5.56a.85.85 0 01-.65-.3 1 1 0 01-.28-.73v-6a1 1 0 01.28-.73.85.85 0 01.65-.3h5.56a.88.88 0 01.66.3 1 1 0 01.27.73v6zm-.06-11.69a.72.72 0 01-.3.52 1.16 1.16 0 01-.68.2H23.3a1.19 1.19 0 01-.69-.2.63.63 0 01-.29-.52L21.83 17a.77.77 0 01.29-.66 1.11 1.11 0 01.69-.34h6.38a1.06 1.06 0 01.69.34.7.7 0 01.29.6z"/></svg>